<mxfile host="app.diagrams.net" modified="2023-03-29T02:06:28.815Z" agent="Mozilla/5.0 (Windows NT 10.0; Win64; x64) AppleWebKit/537.36 (KHTML, like Gecko) Chrome/111.0.0.0 Safari/537.36" version="21.1.1" etag="vkqoL5y5lFp-06UWhroE" type="device">
  <diagram id="AK-pvQWccVTcr_6bdEfi" name="Page-1">
    <mxGraphModel dx="65" dy="40" grid="1" gridSize="10" guides="1" tooltips="1" connect="1" arrows="1" fold="1" page="1" pageScale="1" pageWidth="1600" pageHeight="900" math="0" shadow="0">
      <root>
        <mxCell id="0" />
        <mxCell id="1" parent="0" />
        <mxCell id="F4VY5fmV-4Neg_cE4m9Q-1" value="&lt;font face=&quot;Verdana&quot;&gt;Shape&lt;/font&gt;" style="swimlane;fontStyle=1;align=center;verticalAlign=top;childLayout=stackLayout;horizontal=1;startSize=26;horizontalStack=0;resizeParent=1;resizeParentMax=0;resizeLast=0;collapsible=1;marginBottom=0;whiteSpace=wrap;html=1;" vertex="1" parent="1">
          <mxGeometry x="570" y="160" width="330" height="170" as="geometry" />
        </mxCell>
        <mxCell id="F4VY5fmV-4Neg_cE4m9Q-3" value="" style="line;strokeWidth=1;fillColor=none;align=left;verticalAlign=middle;spacingTop=-1;spacingLeft=3;spacingRight=3;rotatable=0;labelPosition=right;points=[];portConstraint=eastwest;strokeColor=inherit;" vertex="1" parent="F4VY5fmV-4Neg_cE4m9Q-1">
          <mxGeometry y="26" width="330" height="8" as="geometry" />
        </mxCell>
        <mxCell id="F4VY5fmV-4Neg_cE4m9Q-4" value="&lt;font style=&quot;font-size: 11px;&quot; face=&quot;Verdana&quot;&gt;# getRawInput() : string&lt;br&gt;# getInt(prompt:string) : int&lt;br&gt;# getFloat(string prompt) : float&lt;br&gt;# getFloat(prompt:string, greaterThanZero:bool) : float&lt;br&gt;&lt;i&gt;# drawShape() : void&lt;br&gt;# area() : void&lt;br&gt;# perimeter : void&lt;br&gt;+ menu(selection:int) : Shape&lt;/i&gt;&lt;/font&gt;" style="text;strokeColor=none;fillColor=none;align=left;verticalAlign=top;spacingLeft=4;spacingRight=4;overflow=hidden;rotatable=0;points=[[0,0.5],[1,0.5]];portConstraint=eastwest;whiteSpace=wrap;html=1;" vertex="1" parent="F4VY5fmV-4Neg_cE4m9Q-1">
          <mxGeometry y="34" width="330" height="136" as="geometry" />
        </mxCell>
        <mxCell id="F4VY5fmV-4Neg_cE4m9Q-9" style="edgeStyle=orthogonalEdgeStyle;rounded=0;orthogonalLoop=1;jettySize=auto;html=1;shape=flexArrow;width=0.1923076923076923;endSize=6.301923076923077;entryX=0.03;entryY=0.993;entryDx=0;entryDy=0;entryPerimeter=0;" edge="1" parent="1" source="F4VY5fmV-4Neg_cE4m9Q-5" target="F4VY5fmV-4Neg_cE4m9Q-4">
          <mxGeometry relative="1" as="geometry">
            <mxPoint x="740" y="340" as="targetPoint" />
            <Array as="points">
              <mxPoint x="415" y="410" />
              <mxPoint x="580" y="410" />
            </Array>
          </mxGeometry>
        </mxCell>
        <mxCell id="F4VY5fmV-4Neg_cE4m9Q-5" value="Circle" style="swimlane;fontStyle=1;align=center;verticalAlign=top;childLayout=stackLayout;horizontal=1;startSize=26;horizontalStack=0;resizeParent=1;resizeParentMax=0;resizeLast=0;collapsible=1;marginBottom=0;whiteSpace=wrap;html=1;" vertex="1" parent="1">
          <mxGeometry x="320" y="450" width="190" height="114" as="geometry" />
        </mxCell>
        <mxCell id="F4VY5fmV-4Neg_cE4m9Q-7" value="" style="line;strokeWidth=1;fillColor=none;align=left;verticalAlign=middle;spacingTop=-1;spacingLeft=3;spacingRight=3;rotatable=0;labelPosition=right;points=[];portConstraint=eastwest;strokeColor=inherit;" vertex="1" parent="F4VY5fmV-4Neg_cE4m9Q-5">
          <mxGeometry y="26" width="190" height="8" as="geometry" />
        </mxCell>
        <mxCell id="F4VY5fmV-4Neg_cE4m9Q-8" value="&lt;span style=&quot;border-color: var(--border-color); font-family: Verdana; font-size: 11px;&quot;&gt;# drawShape() : void&lt;br style=&quot;border-color: var(--border-color);&quot;&gt;# area() : void&lt;br style=&quot;border-color: var(--border-color);&quot;&gt;# perimeter : void&lt;br style=&quot;border-color: var(--border-color);&quot;&gt;+ menu(selection:int) : Shape&lt;/span&gt;" style="text;strokeColor=none;fillColor=none;align=left;verticalAlign=top;spacingLeft=4;spacingRight=4;overflow=hidden;rotatable=0;points=[[0,0.5],[1,0.5]];portConstraint=eastwest;whiteSpace=wrap;html=1;" vertex="1" parent="F4VY5fmV-4Neg_cE4m9Q-5">
          <mxGeometry y="34" width="190" height="80" as="geometry" />
        </mxCell>
        <mxCell id="F4VY5fmV-4Neg_cE4m9Q-10" value="Circle" style="swimlane;fontStyle=1;align=center;verticalAlign=top;childLayout=stackLayout;horizontal=1;startSize=26;horizontalStack=0;resizeParent=1;resizeParentMax=0;resizeLast=0;collapsible=1;marginBottom=0;whiteSpace=wrap;html=1;" vertex="1" parent="1">
          <mxGeometry x="540" y="450" width="190" height="114" as="geometry" />
        </mxCell>
        <mxCell id="F4VY5fmV-4Neg_cE4m9Q-11" value="" style="line;strokeWidth=1;fillColor=none;align=left;verticalAlign=middle;spacingTop=-1;spacingLeft=3;spacingRight=3;rotatable=0;labelPosition=right;points=[];portConstraint=eastwest;strokeColor=inherit;" vertex="1" parent="F4VY5fmV-4Neg_cE4m9Q-10">
          <mxGeometry y="26" width="190" height="8" as="geometry" />
        </mxCell>
        <mxCell id="F4VY5fmV-4Neg_cE4m9Q-12" value="&lt;span style=&quot;border-color: var(--border-color); font-family: Verdana; font-size: 11px;&quot;&gt;# drawShape() : void&lt;br style=&quot;border-color: var(--border-color);&quot;&gt;# area() : void&lt;br style=&quot;border-color: var(--border-color);&quot;&gt;# perimeter : void&lt;br style=&quot;border-color: var(--border-color);&quot;&gt;+ menu(selection:int) : Shape&lt;/span&gt;" style="text;strokeColor=none;fillColor=none;align=left;verticalAlign=top;spacingLeft=4;spacingRight=4;overflow=hidden;rotatable=0;points=[[0,0.5],[1,0.5]];portConstraint=eastwest;whiteSpace=wrap;html=1;" vertex="1" parent="F4VY5fmV-4Neg_cE4m9Q-10">
          <mxGeometry y="34" width="190" height="80" as="geometry" />
        </mxCell>
        <mxCell id="F4VY5fmV-4Neg_cE4m9Q-13" value="Circle" style="swimlane;fontStyle=1;align=center;verticalAlign=top;childLayout=stackLayout;horizontal=1;startSize=26;horizontalStack=0;resizeParent=1;resizeParentMax=0;resizeLast=0;collapsible=1;marginBottom=0;whiteSpace=wrap;html=1;" vertex="1" parent="1">
          <mxGeometry x="750" y="450" width="190" height="114" as="geometry" />
        </mxCell>
        <mxCell id="F4VY5fmV-4Neg_cE4m9Q-14" value="" style="line;strokeWidth=1;fillColor=none;align=left;verticalAlign=middle;spacingTop=-1;spacingLeft=3;spacingRight=3;rotatable=0;labelPosition=right;points=[];portConstraint=eastwest;strokeColor=inherit;" vertex="1" parent="F4VY5fmV-4Neg_cE4m9Q-13">
          <mxGeometry y="26" width="190" height="8" as="geometry" />
        </mxCell>
        <mxCell id="F4VY5fmV-4Neg_cE4m9Q-15" value="&lt;span style=&quot;border-color: var(--border-color); font-family: Verdana; font-size: 11px;&quot;&gt;# drawShape() : void&lt;br style=&quot;border-color: var(--border-color);&quot;&gt;# area() : void&lt;br style=&quot;border-color: var(--border-color);&quot;&gt;# perimeter : void&lt;br style=&quot;border-color: var(--border-color);&quot;&gt;+ menu(selection:int) : Shape&lt;/span&gt;" style="text;strokeColor=none;fillColor=none;align=left;verticalAlign=top;spacingLeft=4;spacingRight=4;overflow=hidden;rotatable=0;points=[[0,0.5],[1,0.5]];portConstraint=eastwest;whiteSpace=wrap;html=1;" vertex="1" parent="F4VY5fmV-4Neg_cE4m9Q-13">
          <mxGeometry y="34" width="190" height="80" as="geometry" />
        </mxCell>
        <mxCell id="F4VY5fmV-4Neg_cE4m9Q-16" value="Circle" style="swimlane;fontStyle=1;align=center;verticalAlign=top;childLayout=stackLayout;horizontal=1;startSize=26;horizontalStack=0;resizeParent=1;resizeParentMax=0;resizeLast=0;collapsible=1;marginBottom=0;whiteSpace=wrap;html=1;" vertex="1" parent="1">
          <mxGeometry x="970" y="450" width="190" height="114" as="geometry" />
        </mxCell>
        <mxCell id="F4VY5fmV-4Neg_cE4m9Q-17" value="" style="line;strokeWidth=1;fillColor=none;align=left;verticalAlign=middle;spacingTop=-1;spacingLeft=3;spacingRight=3;rotatable=0;labelPosition=right;points=[];portConstraint=eastwest;strokeColor=inherit;" vertex="1" parent="F4VY5fmV-4Neg_cE4m9Q-16">
          <mxGeometry y="26" width="190" height="8" as="geometry" />
        </mxCell>
        <mxCell id="F4VY5fmV-4Neg_cE4m9Q-18" value="&lt;span style=&quot;border-color: var(--border-color); font-family: Verdana; font-size: 11px;&quot;&gt;# drawShape() : void&lt;br style=&quot;border-color: var(--border-color);&quot;&gt;# area() : void&lt;br style=&quot;border-color: var(--border-color);&quot;&gt;# perimeter : void&lt;br style=&quot;border-color: var(--border-color);&quot;&gt;+ menu(selection:int) : Shape&lt;/span&gt;" style="text;strokeColor=none;fillColor=none;align=left;verticalAlign=top;spacingLeft=4;spacingRight=4;overflow=hidden;rotatable=0;points=[[0,0.5],[1,0.5]];portConstraint=eastwest;whiteSpace=wrap;html=1;" vertex="1" parent="F4VY5fmV-4Neg_cE4m9Q-16">
          <mxGeometry y="34" width="190" height="80" as="geometry" />
        </mxCell>
        <mxCell id="F4VY5fmV-4Neg_cE4m9Q-19" style="edgeStyle=orthogonalEdgeStyle;rounded=0;orthogonalLoop=1;jettySize=auto;html=1;shape=flexArrow;width=0.1923076923076923;endSize=6.301923076923077;exitX=0.5;exitY=0;exitDx=0;exitDy=0;entryX=0.198;entryY=1.008;entryDx=0;entryDy=0;entryPerimeter=0;" edge="1" parent="1" source="F4VY5fmV-4Neg_cE4m9Q-10" target="F4VY5fmV-4Neg_cE4m9Q-4">
          <mxGeometry relative="1" as="geometry">
            <mxPoint x="480" y="451" as="sourcePoint" />
            <mxPoint x="635" y="340" as="targetPoint" />
            <Array as="points">
              <mxPoint x="635" y="360" />
              <mxPoint x="635" y="360" />
            </Array>
          </mxGeometry>
        </mxCell>
        <mxCell id="F4VY5fmV-4Neg_cE4m9Q-20" style="edgeStyle=orthogonalEdgeStyle;rounded=0;orthogonalLoop=1;jettySize=auto;html=1;shape=flexArrow;width=0.1923076923076923;endSize=6.301923076923077;entryX=0.848;entryY=1.001;entryDx=0;entryDy=0;entryPerimeter=0;" edge="1" parent="1" target="F4VY5fmV-4Neg_cE4m9Q-4">
          <mxGeometry relative="1" as="geometry">
            <mxPoint x="850" y="450" as="sourcePoint" />
            <mxPoint x="1049" y="339" as="targetPoint" />
            <Array as="points">
              <mxPoint x="850" y="350" />
              <mxPoint x="850" y="350" />
            </Array>
          </mxGeometry>
        </mxCell>
        <mxCell id="F4VY5fmV-4Neg_cE4m9Q-21" style="edgeStyle=orthogonalEdgeStyle;rounded=0;orthogonalLoop=1;jettySize=auto;html=1;shape=flexArrow;width=0.1923076923076923;endSize=6.301923076923077;exitX=0.5;exitY=0;exitDx=0;exitDy=0;entryX=0.968;entryY=1.004;entryDx=0;entryDy=0;entryPerimeter=0;" edge="1" parent="1" source="F4VY5fmV-4Neg_cE4m9Q-16" target="F4VY5fmV-4Neg_cE4m9Q-4">
          <mxGeometry relative="1" as="geometry">
            <mxPoint x="425" y="460" as="sourcePoint" />
            <mxPoint x="890" y="350" as="targetPoint" />
            <Array as="points">
              <mxPoint x="1065" y="410" />
              <mxPoint x="889" y="410" />
            </Array>
          </mxGeometry>
        </mxCell>
      </root>
    </mxGraphModel>
  </diagram>
</mxfile>
